<svg width="24" height="24" viewBox="0 0 24 24" fill="none" xmlns="http://www.w3.org/2000/svg">
    <path
        d="M14 2L20 8V20C20 20.5304 19.7893 21.0391 19.4142 21.4142C19.0391 21.7893 18.5304 22 18 22H6C5.46957 22 4.96086 21.7893 4.58579 21.4142C4.21071 21.0391 4 20.5304 4 20V4C4 3.46957 4.21071 2.96086 4.58579 2.58579C4.96086 2.21071 5.46957 2 6 2H14ZM18 20V9H13V4H6V20H18Z"
        fill="currentColor" />
    <g clip-path="url(#clip0_821_6848)">
        <path
            d="M14.807 17.3333V18.7017H9.33333V17.3333H8.64912V18.7017C8.64912 18.8832 8.72121 19.0572 8.84952 19.1855C8.97784 19.3139 9.15187 19.3859 9.33333 19.3859H14.807C14.9885 19.3859 15.1625 19.3139 15.2908 19.1855C15.4191 19.0572 15.4912 18.8832 15.4912 18.7017V17.3333H14.807Z"
            fill="currentColor" />
        <path
            d="M13.7807 16.307L13.297 15.8233L12.4123 16.708V13.9123H11.7281V16.708L10.8434 15.8233L10.3596 16.307L12.0702 18.0176L13.7807 16.307Z"
            fill="currentColor" />
        <path
            d="M16.1754 10.4912V9.80701H14.1228V13.2281H14.807V11.8596H15.8333V11.1754H14.807V10.4912H16.1754Z"
            fill="currentColor" />
        <path
            d="M12.4123 13.2281H11.0439V9.80701H12.4123C12.6844 9.80731 12.9453 9.91553 13.1377 10.1079C13.3301 10.3003 13.4383 10.5612 13.4386 10.8333V12.2017C13.4383 12.4738 13.3301 12.7347 13.1377 12.9271C12.9453 13.1195 12.6844 13.2278 12.4123 13.2281ZM11.7281 12.5438H12.4123C12.503 12.5437 12.5899 12.5077 12.6541 12.4435C12.7182 12.3794 12.7543 12.2924 12.7544 12.2017V10.8333C12.7543 10.7426 12.7182 10.6557 12.6541 10.5915C12.5899 10.5274 12.503 10.4913 12.4123 10.4912H11.7281V12.5438Z"
            fill="currentColor" />
        <path
            d="M9.67544 9.80701H7.96491V13.2281H8.64912V12.2017H9.67544C9.85683 12.2015 10.0307 12.1293 10.159 12.0011C10.2872 11.8728 10.3594 11.6989 10.3596 11.5175V10.4912C10.3594 10.3098 10.2873 10.1359 10.159 10.0076C10.0307 9.87937 9.85684 9.80722 9.67544 9.80701ZM8.64912 11.5175V10.4912H9.67544L9.67578 11.5175H8.64912Z"
            fill="currentColor" />
    </g>
    <defs>
        <clipPath id="clip0_821_6848">
            <rect width="10.9474" height="10.9474" fill="white"
                transform="translate(6.59649 9.1228)" />
        </clipPath>
    </defs>
</svg>